# xmcd CD database file
#
# Track frame offsets:
#	150
#	18947
#	38490
#	57317
#
# Disc length: 1021 seconds
#
# Revision: 3
# Processed by: cddbd v1.5.2PL0 Copyright (c) Steve Scherf et al.
# Submitted via: CDex 1.70beta2
#
DISCID=2503fb04
DTITLE=Samantha - 木村カエラ
DYEAR=2007
DGENRE=J-Pop
TTITLE0=Samantha
TTITLE1=Honey B～みつばちダンス～
TTITLE2=Samantha -inst-
TTITLE3=Honey B～みつばちダンス～ -Inst-
EXTD=YEAR: 2007
EXTT0=
EXTT1=
EXTT2=
EXTT3=
PLAYORDER=
